<?xml version="1.0" standalone="no"?>
<!DOCTYPE svg PUBLIC "-//W3C//DTD SVG 20010904//EN"
 "http://www.w3.org/TR/2001/REC-SVG-20010904/DTD/svg10.dtd">
<svg version="1.0" xmlns="http://www.w3.org/2000/svg"
 width="607.000000pt" height="408.000000pt" viewBox="0 0 607.000000 408.000000"
 preserveAspectRatio="xMidYMid meet">

<g transform="translate(0.000000,408.000000) scale(0.100000,-0.100000)"
fill="#000000" stroke="none">
<path d="M2440 3702 c0 -16 7 -37 15 -48 8 -10 19 -37 25 -59 24 -89 77 -266
171 -566 l98 -316 -46 -134 c-25 -74 -48 -138 -53 -142 -4 -5 -41 -13 -81 -18
-41 -6 -110 -19 -154 -30 -75 -19 -80 -19 -92 -3 -7 9 -14 22 -16 28 -2 7 -19
6 -55 -5 -28 -9 -53 -15 -56 -12 -3 3 -3 18 1 33 4 22 -4 43 -33 90 -32 51
-39 73 -42 127 l-4 65 87 88 c49 49 100 92 114 96 38 11 40 11 49 13 5 0 16
17 25 36 49 104 -9 201 -114 192 -62 -5 -119 -49 -119 -93 0 -34 -135 -256
-236 -388 -32 -43 -63 -85 -69 -94 -5 -10 -21 -33 -35 -52 -45 -63 -70 -101
-70 -106 0 -3 -9 -19 -21 -35 -13 -19 -23 -51 -26 -87 -4 -47 0 -65 20 -105
27 -52 19 -71 -17 -38 -12 12 -25 21 -29 21 -8 0 -97 -92 -97 -100 0 -3 18
-24 40 -45 22 -21 40 -42 40 -46 0 -4 -36 -49 -79 -100 -44 -51 -78 -96 -75
-101 12 -19 33 -3 93 72 307 383 818 596 1320 552 202 -19 347 -59 561 -155
150 -67 374 -248 501 -403 33 -41 67 -74 75 -74 8 0 14 3 14 6 0 9 -36 58 -86
116 -24 28 -44 56 -44 62 0 5 12 23 27 38 l27 28 -49 50 c-33 34 -55 48 -66
45 -11 -4 -31 6 -52 25 -41 35 -44 36 -71 11 -21 -20 -21 -19 -106 35 -47 29
-118 70 -158 90 -40 19 -72 38 -70 42 23 50 72 130 79 127 4 -3 17 8 29 25 17
24 25 28 40 20 25 -13 27 -13 34 6 4 9 2 22 -4 29 -17 20 11 44 55 46 29 1 85
-18 205 -69 158 -66 221 -90 210 -79 -3 2 -108 62 -235 132 -126 71 -232 130
-234 131 -2 2 5 17 15 33 l19 30 180 -100 c99 -55 205 -113 235 -130 l55 -30
-45 41 c-25 22 -98 77 -163 121 -65 44 -125 93 -134 107 -9 15 -28 39 -41 54
-20 22 -23 30 -13 42 7 8 18 13 24 10 7 -2 22 14 35 37 23 39 23 41 5 54 -14
11 -16 18 -7 32 64 109 155 285 149 291 -4 4 -10 3 -12 -3 -2 -5 -39 -73 -83
-150 -68 -121 -82 -140 -102 -138 -17 2 -28 -6 -45 -36 -14 -25 -19 -41 -12
-48 5 -5 7 -16 4 -24 -9 -24 -118 -12 -195 21 -98 43 -312 130 -318 130 -15 0
66 -49 248 -150 113 -62 207 -114 209 -116 4 -4 -19 -64 -25 -64 -2 0 -105 57
-230 126 -124 69 -228 124 -230 121 -6 -5 114 -96 233 -177 111 -75 140 -136
77 -161 -27 -10 -31 -27 -9 -35 17 -7 20 -40 4 -50 -6 -3 -8 -16 -5 -27 4 -17
-15 -62 -40 -96 -2 -2 -21 4 -44 13 -57 23 -77 21 -84 -9 -4 -14 -11 -25 -16
-25 -5 0 -55 11 -112 25 -57 14 -116 25 -133 25 -66 0 -71 6 -109 116 -67 193
-69 155 22 444 90 287 192 628 192 643 0 5 9 20 20 34 24 30 26 61 5 69 -22 9
-45 -14 -45 -45 0 -14 -16 -69 -36 -121 -43 -116 -163 -457 -211 -600 -19 -58
-38 -108 -42 -113 -4 -4 -29 55 -55 130 -27 76 -89 251 -138 388 -50 138 -93
272 -97 298 -7 47 -22 67 -48 67 -8 0 -13 -12 -13 -28z m374 -1186 c26 -79 23
-86 -29 -86 -30 0 -45 4 -45 13 0 27 43 138 50 130 4 -4 15 -30 24 -57z m-744
-41 c23 -41 49 -80 59 -87 10 -7 21 -29 25 -48 l6 -36 -75 -37 c-41 -20 -113
-61 -159 -91 l-84 -54 -23 24 c-16 18 -26 21 -35 13 -7 -6 -18 -8 -25 -4 -18
12 -39 71 -39 112 0 35 9 47 111 148 98 97 144 130 186 134 6 0 30 -33 53 -74z"/>
<path d="M861 2988 c-17 -57 -55 -122 -86 -146 -14 -11 -25 -24 -25 -28 0 -5
18 -22 40 -37 47 -33 49 -44 14 -57 -33 -13 -29 -45 6 -45 18 0 25 6 26 20 1
11 2 24 3 28 2 15 68 -43 115 -102 45 -56 50 -59 103 -66 54 -7 56 -6 94 31
38 37 49 67 29 79 -5 3 -10 21 -10 38 0 24 -8 39 -32 60 -29 25 -30 28 -10 24
21 -5 23 -2 20 26 -4 39 -24 46 -39 13 -7 -14 -15 -26 -19 -26 -13 0 -100 71
-100 81 0 5 11 7 25 3 22 -5 25 -3 25 19 0 32 -28 57 -41 36 -5 -8 -9 -20 -9
-27 0 -31 -35 -3 -69 55 -20 34 -39 62 -42 63 -3 0 -11 -19 -18 -42z m89 -134
c0 -9 -5 -14 -12 -12 -18 6 -21 28 -4 28 9 0 16 -7 16 -16z m-44 -75 c10 -17
-13 -36 -27 -22 -12 12 -4 33 11 33 5 0 12 -5 16 -11z m150 -20 c3 -6 1 -16
-5 -22 -9 -9 -14 -8 -21 3 -9 15 -4 30 10 30 5 0 12 -5 16 -11z m-48 -91 c-6
-18 -28 -21 -28 -4 0 9 7 16 16 16 9 0 14 -5 12 -12z"/>
<path d="M4800 2980 c-12 -7 -12 -11 3 -28 17 -19 17 -20 -3 -25 -15 -4 -20 0
-20 13 0 25 -17 35 -35 20 -20 -17 -19 -40 3 -40 16 -1 16 -1 0 -11 -20 -11
-28 -12 -29 -1 -2 20 -22 31 -40 21 -20 -10 -26 -39 -9 -39 6 0 10 -4 10 -10
0 -19 -28 -10 -33 10 -6 24 -17 25 -43 5 -19 -15 -19 -15 1 -30 17 -14 18 -17
5 -25 -24 -15 -30 -12 -30 15 0 26 -7 29 -34 19 -21 -8 -20 -33 0 -41 15 -6
15 -8 -2 -20 -22 -16 -35 -17 -33 0 5 39 -17 51 -42 21 -11 -14 -10 -18 6 -30
15 -11 16 -17 7 -26 -7 -7 -12 -25 -12 -41 0 -15 -4 -36 -9 -46 -8 -14 -1 -27
37 -64 l47 -46 71 7 72 7 63 94 c57 85 82 110 202 207 24 19 12 36 -19 28 -19
-5 -29 -1 -40 15 -8 11 -21 21 -28 21 -8 0 -16 7 -20 15 -6 17 -24 19 -46 5z
m70 -50 c0 -5 -4 -10 -10 -10 -5 0 -10 5 -10 10 0 6 5 10 10 10 6 0 10 -4 10
-10z m-50 -24 c0 -3 -4 -8 -10 -11 -5 -3 -10 -1 -10 4 0 6 5 11 10 11 6 0 10
-2 10 -4z m-190 -96 c0 -5 -2 -10 -4 -10 -3 0 -8 5 -11 10 -3 6 -1 10 4 10 6
0 11 -4 11 -10z m-60 -30 c0 -5 -4 -10 -10 -10 -5 0 -10 5 -10 10 0 6 5 10 10
10 6 0 10 -4 10 -10z"/>
<path d="M4382 2607 c-23 -23 -42 -47 -42 -52 0 -13 82 -95 95 -95 6 0 31 20
55 45 l43 44 -49 50 c-27 28 -51 51 -54 51 -3 0 -25 -19 -48 -43z"/>
<path d="M902 2619 c-32 -12 -25 -43 11 -47 24 -3 27 0 27 27 0 33 -3 35 -38
20z"/>
<path d="M1167 2582 c-20 -21 -37 -42 -37 -46 0 -10 80 -99 93 -105 11 -4 87
69 87 84 0 10 -91 105 -101 105 -3 0 -22 -17 -42 -38z"/>
<path d="M4282 2507 l-32 -33 33 -34 32 -34 -38 28 -39 28 -29 -28 c-16 -15
-29 -32 -29 -38 0 -6 19 -31 43 -56 l42 -45 -45 43 c-25 23 -50 42 -56 42 -17
0 -67 -58 -60 -69 4 -6 1 -9 -6 -6 -8 3 -27 -8 -43 -25 l-29 -31 52 -52 52
-52 32 32 c28 28 30 34 17 50 -13 16 -13 17 4 4 16 -13 25 -7 89 57 53 54 69
75 64 89 -6 14 -5 16 5 5 11 -10 20 -6 46 20 18 18 33 36 33 42 0 14 -81 96
-95 96 -6 0 -25 -15 -43 -33z m-18 -138 c-3 -5 -10 -7 -15 -3 -5 3 -7 10 -3
15 3 5 10 7 15 3 5 -3 7 -10 3 -15z m-119 -99 c10 -11 16 -20 13 -20 -3 0 -13
9 -23 20 -10 11 -16 20 -13 20 3 0 13 -9 23 -20z m-25 -40 c0 -5 -4 -10 -10
-10 -5 0 -10 5 -10 10 0 6 5 10 10 10 6 0 10 -4 10 -10z"/>
<path d="M1277 2462 c-20 -21 -37 -42 -37 -48 0 -13 63 -74 76 -74 5 0 29 19
53 41 l43 41 -38 39 c-21 22 -43 39 -49 39 -6 0 -28 -17 -48 -38z"/>
<path d="M1380 2382 c-56 -59 -56 -60 -14 -103 21 -21 45 -39 53 -39 8 0 11
-3 7 -7 -6 -7 52 -73 65 -73 10 0 89 83 89 94 0 5 -14 22 -32 37 -25 24 -34
27 -47 17 -13 -10 -14 -10 -3 2 10 12 5 22 -30 57 -23 24 -47 43 -53 42 -5 -1
-21 -13 -35 -27z m53 -57 c1 -5 -6 -11 -15 -13 -11 -2 -18 3 -18 13 0 17 30
18 33 0z"/>
<path d="M2655 2360 c-312 -27 -598 -149 -853 -362 -78 -65 -212 -211 -212
-230 0 -11 2387 -11 2394 1 3 4 -36 52 -86 106 -184 195 -384 327 -626 410
-176 60 -429 91 -617 75z m305 -86 c101 -7 271 -50 393 -98 89 -35 241 -116
233 -124 -3 -2 -42 12 -88 32 -129 55 -220 84 -362 113 -116 23 -154 26 -341
27 -190 1 -224 -2 -354 -27 -128 -25 -233 -58 -398 -125 -29 -12 -53 -20 -53
-18 0 6 87 56 155 89 124 60 290 109 428 127 152 19 187 19 387 4z"/>
<path d="M1547 2196 c-26 -24 -47 -47 -47 -51 0 -10 57 -65 67 -65 5 0 30 22
56 48 l48 49 -36 31 c-20 18 -37 32 -39 32 -1 0 -24 -20 -49 -44z"/>
<path d="M3987 2212 c-15 -16 -25 -31 -22 -35 3 -4 2 -5 -2 -2 -4 3 -19 -7
-35 -22 l-28 -27 52 -53 52 -53 28 27 c20 19 25 30 17 39 -8 9 -6 11 8 8 11
-3 28 5 43 21 l24 25 -49 50 c-27 28 -52 50 -55 50 -4 0 -18 -13 -33 -28z m24
-79 c13 -16 12 -17 -3 -4 -17 13 -22 21 -14 21 2 0 10 -8 17 -17z m-24 -49
c-9 -9 -28 6 -21 18 4 6 10 6 17 -1 6 -6 8 -13 4 -17z"/>
<path d="M2290 1551 c0 -5 9 -11 20 -14 19 -5 20 -14 20 -210 0 -206 0 -206
-22 -209 -42 -6 -18 -23 32 -23 49 0 71 17 30 23 -19 3 -20 10 -20 223 l0 219
-30 0 c-16 0 -30 -4 -30 -9z"/>
<path d="M3544 1419 c-10 -17 13 -36 27 -22 12 12 4 33 -11 33 -5 0 -12 -5
-16 -11z"/>
<path d="M1811 1318 c-39 -21 -63 -62 -63 -106 1 -52 15 -78 55 -102 41 -25
83 -25 125 0 40 24 38 24 45 0 6 -24 57 -29 57 -5 0 8 -9 15 -20 15 -19 0 -20
7 -20 100 0 60 -4 100 -10 100 -5 0 -10 -7 -10 -15 0 -19 -9 -19 -31 1 -24 22
-98 28 -128 12z m120 -37 c53 -53 35 -138 -35 -161 -41 -13 -98 6 -115 38 -35
66 12 152 84 152 27 0 44 -8 66 -29z"/>
<path d="M2119 1309 c-34 -34 -22 -70 31 -97 56 -28 73 -48 60 -73 -6 -10 -19
-20 -29 -24 -27 -8 -71 5 -71 21 0 8 -4 14 -10 14 -18 0 -11 -39 9 -50 37 -19
88 -12 110 16 12 15 21 34 21 44 0 22 -38 57 -72 65 -35 9 -51 29 -43 54 10
32 54 39 76 13 21 -27 29 -28 29 -2 0 41 -76 54 -111 19z"/>
<path d="M2450 1321 c0 -5 11 -12 25 -15 24 -6 25 -9 25 -96 0 -89 0 -90 -25
-90 -16 0 -25 -6 -25 -15 0 -12 13 -15 55 -15 42 0 55 3 55 15 0 8 -9 15 -20
15 -18 0 -20 7 -20 64 0 76 22 112 76 122 58 11 74 -13 74 -107 0 -73 -1 -78
-22 -81 -13 -2 -22 -7 -20 -13 3 -15 104 -13 110 3 2 7 -6 12 -22 12 -24 0
-26 3 -26 49 0 66 15 104 49 124 36 21 60 21 89 1 20 -13 22 -24 22 -95 0 -78
0 -79 -25 -79 -14 0 -25 -4 -25 -10 0 -11 58 -23 89 -18 28 4 28 22 1 26 -18
3 -20 11 -20 86 0 69 -3 86 -20 104 -29 31 -80 29 -119 -3 l-30 -26 -25 26
c-34 33 -84 34 -124 0 -31 -26 -42 -24 -42 7 0 13 -8 18 -30 18 -16 0 -30 -4
-30 -9z"/>
<path d="M2965 1321 c-3 -5 5 -11 17 -13 22 -3 23 -8 26 -88 2 -70 7 -89 24
-107 29 -31 78 -30 116 2 37 31 42 31 42 2 0 -20 5 -24 30 -24 34 0 41 16 10
24 -17 5 -20 15 -22 107 l-3 101 -32 3 c-39 4 -44 -13 -8 -22 22 -6 25 -11 25
-55 0 -26 -5 -62 -11 -79 -20 -57 -114 -78 -139 -32 -6 10 -10 57 -10 104 l0
86 -29 0 c-17 0 -32 -4 -36 -9z"/>
<path d="M3339 1309 c-35 -35 -22 -70 36 -100 38 -19 51 -31 53 -51 2 -19 -3
-30 -18 -38 -26 -14 -80 -3 -80 16 0 8 -4 14 -10 14 -18 0 -11 -39 9 -50 55
-29 121 1 121 54 0 36 -19 58 -64 73 -56 18 -61 66 -10 79 21 5 31 2 45 -14
20 -26 29 -28 29 -8 0 44 -75 61 -111 25z"/>
<path d="M3506 1321 c-3 -5 5 -12 19 -15 24 -6 25 -9 25 -96 l0 -90 -26 0
c-16 0 -24 -5 -21 -12 5 -16 107 -18 107 -3 1 6 -8 11 -20 13 -19 3 -20 10
-20 108 l0 104 -29 0 c-17 0 -32 -4 -35 -9z"/>
<path d="M3728 1314 c-34 -18 -58 -62 -58 -104 0 -87 86 -144 164 -109 35 16
23 30 -17 18 -40 -11 -91 4 -112 34 -24 34 -19 94 9 122 47 47 114 45 133 -2
l11 -28 1 32 c1 22 -5 35 -18 43 -28 14 -81 12 -113 -6z"/>
</g>
</svg>
